<svg width="18" height="18" viewBox="0 0 18 18" fill="none" xmlns="http://www.w3.org/2000/svg">
<path d="M9.4035 10.9368C9.26652 11.1111 9.19803 11.1983 9.11418 11.2295C9.04072 11.2568 8.95928 11.2568 8.88583 11.2295C8.80197 11.1983 8.73348 11.1111 8.5965 10.9368L5.91772 7.52737C5.72122 7.27729 5.62297 7.15224 5.62503 7.04752C5.62682 6.9564 5.67121 6.87088 5.74591 6.81464C5.83176 6.75 5.99491 6.75 6.32121 6.75L11.6788 6.75C12.0051 6.75 12.1682 6.75 12.2541 6.81464C12.3288 6.87088 12.3732 6.9564 12.375 7.04752C12.377 7.15224 12.2788 7.27729 12.0823 7.52737L9.4035 10.9368Z" fill="#9FA0AB"/>
</svg>
