<svg width="18" height="18" viewBox="0 0 18 18" fill="none" xmlns="http://www.w3.org/2000/svg">
<path fill-rule="evenodd" clip-rule="evenodd" d="M12.5365 13.4645C11.3708 14.4239 9.87765 15 8.25 15C4.52208 15 1.5 11.9779 1.5 8.25C1.5 4.52208 4.52208 1.5 8.25 1.5C11.9779 1.5 15 4.52208 15 8.25C15 9.8776 14.4239 11.3707 13.4646 12.5364L16.3421 15.4139C16.5984 15.6702 16.5984 16.0857 16.3421 16.342C16.0858 16.5983 15.6703 16.5983 15.414 16.342L12.5365 13.4645ZM13.6875 8.25C13.6875 11.253 11.253 13.6875 8.25 13.6875C5.24695 13.6875 2.8125 11.253 2.8125 8.25C2.8125 5.24695 5.24695 2.8125 8.25 2.8125C11.253 2.8125 13.6875 5.24695 13.6875 8.25Z" fill="black" fill-opacity="0.5"/>
</svg>
